<svg xmlns="http://www.w3.org/2000/svg" width="324.049" height="42.792" viewBox="0 0 324.049 42.792">
  <g id="Group_4" data-name="Group 4" transform="translate(-76.549 -222.826)">
    <path id="Path_32" data-name="Path 32" d="M659.044,254.92l-2.119-3.816H643.133l-2.051,3.816H633.7l12.028-21.4h8.727l11.707,21.4Zm-41.95-.161a79.347,79.347,0,0,1-8.981.322c-4.845,0-7.026-.128-8.6-.545-2.4-.61-3.432-2.15-3.432-5.2,0-.227,0-.771.032-1.252H602.5c.064,1.6.29,1.989,1.25,2.214a29.289,29.289,0,0,0,4.074.224c7.667,0,8.467-.192,8.467-2.085,0-1.092-.64-1.7-1.956-1.829a31.258,31.258,0,0,0-3.207-.064h-5.9a20.8,20.8,0,0,1-6.063-.544c-2.243-.769-3.143-2.407-3.143-5.776,0-4.266,1.381-6,5.358-6.511a54.857,54.857,0,0,1,8.019-.353c6.254,0,7.954.128,9.59.737,2.149.8,2.855,2.279,2.855,5.968h-6.351c0-1.861-.609-2.119-5.005-2.119-1.987,0-4.875.1-5.868.162-1.606.128-2.183.577-2.183,1.763a1.646,1.646,0,0,0,1.445,1.733,11.112,11.112,0,0,0,2.565.128h6.061c.386,0,1.669.033,3.4.1,3.208.129,4.522.514,5.516,1.668.866.962,1.315,2.566,1.315,4.779,0,4.3-1.541,6.063-5.646,6.48m32.935-31.933a21.406,21.406,0,0,0-20.325,14.7,21.4,21.4,0,1,0,0,13.4,21.4,21.4,0,1,0,20.325-28.1" transform="translate(-270.826)" fill="#175fa6"/>
    <path id="Path_33" data-name="Path 33" d="M710.182,263.848h9.175l-4.621-8.533Z" transform="translate(-335.534 -17.204)" fill="#0b60a4"/>
    <path id="Path_34" data-name="Path 34" d="M454.9,228.984a.424.424,0,0,1,.294-.144.274.274,0,0,1,.256.305.46.46,0,0,1-.144.305,27.593,27.593,0,0,0-6.643,18.122c0,7.748,2.8,13.227,6.643,18a.473.473,0,0,1,.144.307.276.276,0,0,1-.256.307.412.412,0,0,1-.294-.149L438.511,250.2a3.347,3.347,0,0,1,0-5.359Z" transform="translate(-190.963 -3.185)" fill="#e62a2c"/>
    <path id="Path_35" data-name="Path 35" d="M491.575,226.3c-6.414,0-8.921,9.092-8.921,19.927s2.507,19.81,8.921,19.81c3.85,0,7.133-2.254,7.142-4.107a1.569,1.569,0,0,0-.494-1.133,7.2,7.2,0,0,1-2.544-5.079,5.222,5.222,0,0,1,4.934-5.18c3.266,0,5.191,2.565,5.191,5.886a13.81,13.81,0,0,1-2.8,7.87.448.448,0,0,0-.083.264.267.267,0,0,0,.241.3.443.443,0,0,0,.3-.16l16.388-15.847a3.346,3.346,0,0,0,0-5.358L503.469,227.64a.466.466,0,0,0-.3-.159c-.15,0-.241.139-.241.3a.466.466,0,0,0,.083.268,13.789,13.789,0,0,1,2.8,7.863c0,3.32-1.925,5.889-5.191,5.889a5.224,5.224,0,0,1-4.934-5.18,7.2,7.2,0,0,1,2.544-5.078,1.576,1.576,0,0,0,.494-1.132c-.009-1.854-3.292-4.113-7.142-4.113" transform="translate(-215.049 -1.84)" fill="#175fa6"/>
    <path id="Path_36" data-name="Path 36" d="M100.329,253.8a5.086,5.086,0,0,1,2.126-4.236,9,9,0,0,1,5.355-1.5,9.946,9.946,0,0,1,3.7.664v-2.017c-.032-2.035-.8-3.188-3.082-3.214a7.918,7.918,0,0,0-2.163.376,3.592,3.592,0,0,1,.121.882,2.62,2.62,0,0,1-.63,1.767,2.281,2.281,0,0,1-1.749.742,2.34,2.34,0,0,1-2.311-2.409c.029-2.471,3.026-4.132,7.03-4.133,3.173,0,5.168.751,6.23,2.121.97,1.229,1.015,3.025,1.018,5.558v6.6c.02,1.279.741,1.627,2.332,1.871l.184.025-.012.185a2.671,2.671,0,0,1-2.751,2.572c-.121.01-.238.017-.355.017a3.506,3.506,0,0,1-3.282-2.015,8.427,8.427,0,0,1-5.255,2.059c-3.694-.007-6.494-2.5-6.5-5.909m113.326,5.045a4.76,4.76,0,0,1-.664-1.714c-.185.207-.4.43-.728.742a6.6,6.6,0,0,1-4.56,1.813,5.964,5.964,0,0,1-4.638-1.985c-1.615-1.926-1.6-4.371-1.6-7.843V246.51c-.037-1.355-.463-1.816-1.718-1.851a4.555,4.555,0,0,0-.533.033l-.151.017-.057-.142a1.931,1.931,0,0,1-.144-.72c.04-1.618,2.086-2.483,3.291-2.733a8.2,8.2,0,0,1,1.2-.133,2.62,2.62,0,0,1,2.159.881,3.527,3.527,0,0,1,.639,2.25l-.034,5.712a12.168,12.168,0,0,0,.618,4.7,2.433,2.433,0,0,0,2.5,1.493,3.075,3.075,0,0,0,2.848-1.536,6.7,6.7,0,0,0,.75-3.35V246.51c-.033-1.355-.462-1.818-1.715-1.851a4.438,4.438,0,0,0-.531.033l-.153.017-.057-.142a1.986,1.986,0,0,1-.147-.72c.04-1.618,2.086-2.483,3.3-2.733a8.148,8.148,0,0,1,1.2-.133,2.633,2.633,0,0,1,2.164.881,3.488,3.488,0,0,1,.64,2.248c0,.656-.061,1.821-.061,6.685,0,2.057-.036,3.148-.036,3.483.031,1.4.508,2.03,1.8,2.057a4.26,4.26,0,0,0,.44-.027l.149-.016.056.142a1.87,1.87,0,0,1,.148.7c-.053,1.582-2.1,2.212-3.294,2.451a8.021,8.021,0,0,1-1.126.124h-.024a2.206,2.206,0,0,1-1.93-.868m-64.908-8.335a10.088,10.088,0,0,1,2.571-7.029,9.019,9.019,0,0,1,6.731-2.763,7.338,7.338,0,0,1,5.606,2.272,6.98,6.98,0,0,1,1.807,4.661,5.25,5.25,0,0,1-.609,2.562l-.054.1H153.543a5.529,5.529,0,0,0,5.9,5.576,6.123,6.123,0,0,0,4.525-1.959l.12-.154.156.117a1.661,1.661,0,0,1,.667,1.474c-.012,1.887-2.224,4.307-7.127,4.309a9.042,9.042,0,0,1-9.039-9.168m39.882,9.138a9.17,9.17,0,0,1-6.527-2.62,9.525,9.525,0,0,1-2.711-6.878,9.306,9.306,0,0,1,9.4-9.432,9.192,9.192,0,0,1,6.648,2.616,9.518,9.518,0,0,1-6.806,16.314Zm34.479-.564c-.781-.213-1.284-.642-1.281-1.287a1.973,1.973,0,0,1,.211-.818l.04-.091.1-.019a2.962,2.962,0,0,0,1.229-.554c.467-.382.646-.916.646-2.416v-7.557c-.034-1.273-.325-1.717-1.385-1.748a4.6,4.6,0,0,0-.84.092l-.164.029-.061-.15a2.243,2.243,0,0,1-.164-.81c.026-1.512,1.68-2.289,2.791-2.638a4.326,4.326,0,0,1,1.255-.2c1.508,0,2.326,1.083,2.677,2.479a5.168,5.168,0,0,1,4.118-2.706,2.777,2.777,0,0,1,2.934,2.767,2.54,2.54,0,0,1-2.426,2.642,2.333,2.333,0,0,1-2.333-1.836c-.857.282-2.067,1.356-2.079,5.082V253.9c.007,1.5.212,2.034.637,2.413a4.667,4.667,0,0,0,1.648.557l.095.019.043.093a2.157,2.157,0,0,1,.233.883c0,.612-.455,1.03-1.186,1.232a12.577,12.577,0,0,1-3.3.3,13.441,13.441,0,0,1-3.44-.315m-54.5,0a13.509,13.509,0,0,0,3.451.316,14.053,14.053,0,0,0,3.592-.331c.841-.225,1.394-.656,1.394-1.337a1.817,1.817,0,0,0-.187-.75l-.045-.1-.1-.016a5.541,5.541,0,0,1-1.87-.557c-.451-.389-.7-.924-.7-2.413v-9.855c.564.011,1.318.067,2.078.067a9.649,9.649,0,0,0,1.028-.037,1.775,1.775,0,0,0,1.6-1.82,2.488,2.488,0,0,0-.2-.959l-.05-.122h-4.582v-2.858a5.071,5.071,0,0,1,.495-2.544,2.141,2.141,0,0,1,2.036-.992,2.743,2.743,0,0,1,1.721.507,2.505,2.505,0,0,0-.395,1.312,2.383,2.383,0,0,0,2.346,2.31,2.429,2.429,0,0,0,2.406-2.511c-.016-2.584-2.913-4.19-6.374-4.193a6.209,6.209,0,0,0-5.595,2.723,9.037,9.037,0,0,0-1.171,5.182v1.1h-1.166a1.6,1.6,0,0,0-1.684,1.614,2.451,2.451,0,0,0,.2.935l.049.118,2.665.1v9.93c-.005,1.5-.189,2.034-.645,2.421a3.044,3.044,0,0,1-1.244.549l-.1.019-.044.091a1.951,1.951,0,0,0-.206.812c0,.646.5,1.076,1.29,1.293m-31.973,0a13.419,13.419,0,0,0,3.437.315,12.638,12.638,0,0,0,3.309-.3c.74-.206,1.2-.627,1.191-1.239a2.089,2.089,0,0,0-.225-.876l-.041-.093-.1-.019a4.439,4.439,0,0,1-1.639-.557c-.448-.382-.665-.918-.67-2.413V249.34c.011-3.722,1.241-4.8,2.1-5.082a2.308,2.308,0,0,0,2.312,1.836,2.539,2.539,0,0,0,2.441-2.642,2.78,2.78,0,0,0-2.931-2.766,5.188,5.188,0,0,0-4.126,2.671c-.354-1.378-1.175-2.447-2.7-2.446a4.216,4.216,0,0,0-1.229.2c-1.117.349-2.771,1.118-2.8,2.624a2.2,2.2,0,0,0,.17.824l.062.15.159-.029a4.639,4.639,0,0,1,.845-.092c1.054.031,1.354.476,1.39,1.748V253.9c0,1.5-.191,2.034-.644,2.421a3.042,3.042,0,0,1-1.241.549l-.1.019-.042.093a2.017,2.017,0,0,0-.213.815c0,.644.5,1.074,1.279,1.287m-15.106,0c-.781-.213-1.279-.643-1.279-1.287a1.984,1.984,0,0,1,.212-.815l.041-.093.1-.019a3.061,3.061,0,0,0,1.242-.549c.456-.388.642-.922.645-2.421v-7.557c-.039-1.273-.336-1.717-1.394-1.748a4.609,4.609,0,0,0-.84.092l-.163.029-.059-.15a2.176,2.176,0,0,1-.171-.824c.027-1.505,1.681-2.275,2.8-2.624a4.213,4.213,0,0,1,1.225-.2,2.785,2.785,0,0,1,2.7,2.439,5.205,5.205,0,0,1,4.128-2.666,2.78,2.78,0,0,1,2.93,2.767,2.539,2.539,0,0,1-2.443,2.642,2.309,2.309,0,0,1-2.31-1.836c-.866.283-2.09,1.36-2.1,5.082V253.9c0,1.5.221,2.031.668,2.413a4.448,4.448,0,0,0,1.64.557l.1.019.042.093a2.147,2.147,0,0,1,.229.876c0,.612-.456,1.034-1.2,1.239a12.636,12.636,0,0,1-3.309.3,13.382,13.382,0,0,1-3.435-.315m63.005-9.451c.01,4.963,2.168,7.1,4.285,7.1,2.425,0,4.174-2.139,4.188-6.318a9.235,9.235,0,0,0-1.27-5.112,3.683,3.683,0,0,0-3.11-1.814c-2.514,0-4.079,2.275-4.094,6.139m-75.945,1.045c-1.992.022-3.333.957-3.343,2.81a2.836,2.836,0,0,0,3.05,2.939,4.3,4.3,0,0,0,3.211-1.628v-2.562a1.3,1.3,0,0,0-.72-1.039,4.207,4.207,0,0,0-2.2-.52m51.636-3c.36-.008.456-.089.526-.2a1.522,1.522,0,0,0,.087-.663,3.367,3.367,0,0,0-3.44-3.316c-2.6,0-3.652,2.078-3.817,4.182Zm-80.068,8.715a11.5,11.5,0,0,0,8.255,3.476c5.552-.011,9.477-3.883,9.493-7.257,0-1.793-1.137-3.177-2.676-3.177a2.905,2.905,0,0,0-1.994.749,2.812,2.812,0,0,0-.845,2.093,3.05,3.05,0,0,0,.938,2.134,4.829,4.829,0,0,1-4.436,2.314,5.741,5.741,0,0,1-4.782-2.751,12.872,12.872,0,0,1-1.92-7.247,13.258,13.258,0,0,1,1.856-7.268,5.591,5.591,0,0,1,4.714-2.76,4.868,4.868,0,0,1,4.441,2.317,3.081,3.081,0,0,0-.94,2.146,2.79,2.79,0,0,0,.847,2.086A2.879,2.879,0,0,0,95.1,244c1.54,0,2.676-1.393,2.679-3.191-.019-3.36-3.941-7.245-9.5-7.254a11.2,11.2,0,0,0-8.194,3.665,13.851,13.851,0,0,0-3.541,9.545,13.5,13.5,0,0,0,3.609,9.63m0,0a11.5,11.5,0,0,0,8.255,3.476c5.552-.011,9.477-3.883,9.493-7.257,0-1.793-1.137-3.177-2.676-3.177a2.905,2.905,0,0,0-1.994.749,2.812,2.812,0,0,0-.845,2.093,3.05,3.05,0,0,0,.938,2.134,4.829,4.829,0,0,1-4.436,2.314,5.741,5.741,0,0,1-4.782-2.751,12.872,12.872,0,0,1-1.92-7.247,13.258,13.258,0,0,1,1.856-7.268,5.591,5.591,0,0,1,4.714-2.76,4.868,4.868,0,0,1,4.441,2.317,3.081,3.081,0,0,0-.94,2.146,2.79,2.79,0,0,0,.847,2.086A2.879,2.879,0,0,0,95.1,244c1.54,0,2.676-1.393,2.679-3.191-.019-3.36-3.941-7.245-9.5-7.254a11.2,11.2,0,0,0-8.194,3.665,13.851,13.851,0,0,0-3.541,9.545,13.5,13.5,0,0,0,3.609,9.63" transform="translate(0 -4.965)" fill="#175fa6"/>
  </g>
</svg>
