<svg xmlns="http://www.w3.org/2000/svg" xmlns:xlink="http://www.w3.org/1999/xlink" width="26.128" height="14.355" viewBox="0 0 26.128 14.355">
  <defs>
    <clipPath id="clip-path">
      <rect x="73" y="3" width="26.128" height="14.355" fill="none"/>
    </clipPath>
  </defs>
  <g id="Scroll_Group_49" data-name="Scroll Group 49" transform="translate(-73 -3)" clip-path="url(#clip-path)" style="isolation: isolate">
    <g id="Group_4598" data-name="Group 4598" transform="translate(-57.549 -219.826)">
      <path id="Path_32" data-name="Path 32" d="M611.823,233.592l-.711-1.28h-4.626l-.688,1.28h-2.475l4.035-7.178h2.928l3.927,7.178Zm-14.073-.054a26.618,26.618,0,0,1-3.013.108,12.315,12.315,0,0,1-2.884-.183c-.806-.2-1.151-.721-1.151-1.743,0-.076,0-.259.011-.42h2.141c.022.538.1.667.419.743a9.823,9.823,0,0,0,1.367.075c2.572,0,2.84-.065,2.84-.7,0-.366-.215-.57-.656-.613a10.481,10.481,0,0,0-1.076-.022h-1.98a6.977,6.977,0,0,1-2.034-.183c-.752-.258-1.054-.808-1.054-1.938,0-1.431.463-2.012,1.8-2.184a18.4,18.4,0,0,1,2.69-.118,9.481,9.481,0,0,1,3.217.247c.721.269.958.765.958,2h-2.13c0-.624-.2-.711-1.679-.711-.667,0-1.635.033-1.968.054-.539.043-.732.194-.732.591a.552.552,0,0,0,.485.581,3.729,3.729,0,0,0,.86.043h2.033c.13,0,.56.011,1.141.033,1.076.043,1.517.172,1.851.56a2.38,2.38,0,0,1,.441,1.6c0,1.442-.517,2.034-1.894,2.174M608.8,222.826a7.181,7.181,0,0,0-6.818,4.93,7.178,7.178,0,1,0,0,4.5,7.178,7.178,0,1,0,6.818-9.425" transform="translate(-430.72)" fill="#175fa6"/>
      <path id="Path_33" data-name="Path 33" d="M710.182,258.177h3.078l-1.55-2.863Z" transform="translate(-533.631 -27.361)" fill="#0b60a4"/>
      <path id="Path_34" data-name="Path 34" d="M443.117,228.888a.142.142,0,0,1,.1-.048.092.092,0,0,1,.086.1.154.154,0,0,1-.048.1,9.256,9.256,0,0,0-2.229,6.079,9.149,9.149,0,0,0,2.229,6.04.158.158,0,0,1,.048.1.092.092,0,0,1-.086.1.138.138,0,0,1-.1-.05L437.62,236a1.123,1.123,0,0,1,0-1.8Z" transform="translate(-303.707 -5.065)" fill="#e62a2c"/>
      <path id="Path_35" data-name="Path 35" d="M485.647,226.3c-2.152,0-2.993,3.05-2.993,6.685s.841,6.645,2.993,6.645c1.292,0,2.393-.756,2.4-1.378a.527.527,0,0,0-.166-.38,2.415,2.415,0,0,1-.854-1.7,1.752,1.752,0,0,1,1.655-1.738,1.774,1.774,0,0,1,1.741,1.975,4.633,4.633,0,0,1-.938,2.64.15.15,0,0,0-.028.089.09.09,0,0,0,.081.1.148.148,0,0,0,.1-.054l5.5-5.316a1.123,1.123,0,0,0,0-1.8l-5.5-5.318a.157.157,0,0,0-.1-.053c-.05,0-.081.047-.081.1a.156.156,0,0,0,.028.09,4.626,4.626,0,0,1,.938,2.638,1.775,1.775,0,0,1-1.741,1.975,1.752,1.752,0,0,1-1.655-1.738,2.414,2.414,0,0,1,.854-1.7.529.529,0,0,0,.166-.38c0-.622-1.1-1.38-2.4-1.38" transform="translate(-342.012 -2.926)" fill="#175fa6"/>
      <path id="Path_36" data-name="Path 36" d="M84.526,239.448a1.706,1.706,0,0,1,.713-1.421,3.018,3.018,0,0,1,1.8-.5,3.337,3.337,0,0,1,1.241.223v-.677c-.011-.683-.268-1.07-1.034-1.078a2.657,2.657,0,0,0-.726.126,1.2,1.2,0,0,1,.041.3.879.879,0,0,1-.211.593.765.765,0,0,1-.587.249.785.785,0,0,1-.775-.808c.01-.829,1.015-1.386,2.358-1.387a2.5,2.5,0,0,1,2.09.712,3.023,3.023,0,0,1,.341,1.864v2.213c.007.429.249.546.782.628l.062.008,0,.062a.9.9,0,0,1-.923.863c-.041,0-.08.006-.119.006a1.176,1.176,0,0,1-1.1-.676,2.827,2.827,0,0,1-1.763.691,2.04,2.04,0,0,1-2.181-1.982m38.017,1.692a1.6,1.6,0,0,1-.223-.575c-.062.069-.135.144-.244.249a2.215,2.215,0,0,1-1.53.608,2,2,0,0,1-1.556-.666,3.865,3.865,0,0,1-.538-2.631V237c-.012-.455-.155-.609-.576-.621a1.533,1.533,0,0,0-.179.011l-.051.006-.019-.048a.648.648,0,0,1-.048-.242c.014-.543.7-.833,1.1-.917a2.751,2.751,0,0,1,.4-.045.879.879,0,0,1,.724.3,1.183,1.183,0,0,1,.214.755l-.011,1.916a4.082,4.082,0,0,0,.207,1.577.816.816,0,0,0,.839.5,1.031,1.031,0,0,0,.955-.515,2.247,2.247,0,0,0,.252-1.124V237c-.011-.455-.155-.61-.575-.621a1.494,1.494,0,0,0-.178.011l-.051.006-.019-.048a.666.666,0,0,1-.049-.242c.013-.543.7-.833,1.106-.917a2.734,2.734,0,0,1,.4-.045.883.883,0,0,1,.726.3,1.17,1.17,0,0,1,.215.754c0,.22-.02.611-.02,2.242,0,.69-.012,1.056-.012,1.168.01.47.17.681.6.69a1.429,1.429,0,0,0,.148-.009l.05-.005.019.048a.627.627,0,0,1,.05.236c-.018.531-.706.742-1.1.822a2.689,2.689,0,0,1-.378.042h-.008a.74.74,0,0,1-.647-.291m-21.774-2.8a3.384,3.384,0,0,1,.863-2.358,3.025,3.025,0,0,1,2.258-.927,2.462,2.462,0,0,1,1.881.762,2.342,2.342,0,0,1,.606,1.564,1.761,1.761,0,0,1-.2.859l-.018.034h-3.776a1.855,1.855,0,0,0,1.98,1.871,2.054,2.054,0,0,0,1.518-.657l.04-.052.052.039a.557.557,0,0,1,.224.494c0,.633-.746,1.445-2.391,1.446a3.033,3.033,0,0,1-3.032-3.076m13.379,3.066a3.076,3.076,0,0,1-2.189-.879,3.2,3.2,0,0,1-.91-2.307,3.122,3.122,0,0,1,3.153-3.164,3.083,3.083,0,0,1,2.23.877,3.193,3.193,0,0,1-2.283,5.473Zm11.566-.189c-.262-.071-.431-.215-.43-.432a.662.662,0,0,1,.071-.274l.013-.03.033-.006a.994.994,0,0,0,.412-.186c.157-.128.217-.307.217-.811v-2.535c-.012-.427-.109-.576-.464-.586a1.543,1.543,0,0,0-.282.031l-.055.01-.02-.05a.752.752,0,0,1-.055-.272c.009-.507.564-.768.936-.885a1.451,1.451,0,0,1,.421-.068c.506,0,.78.363.9.832a1.734,1.734,0,0,1,1.382-.908.932.932,0,0,1,.984.928.852.852,0,0,1-.814.886.783.783,0,0,1-.783-.616c-.288.095-.693.455-.7,1.7v1.529c0,.5.071.682.214.81a1.566,1.566,0,0,0,.553.187l.032.006.015.031a.724.724,0,0,1,.078.3c0,.205-.153.346-.4.413a4.219,4.219,0,0,1-1.106.1,4.508,4.508,0,0,1-1.154-.106m-18.282,0a4.531,4.531,0,0,0,1.158.106,4.714,4.714,0,0,0,1.205-.111c.282-.076.468-.22.468-.449a.61.61,0,0,0-.063-.252l-.015-.032-.033-.005a1.859,1.859,0,0,1-.627-.187c-.151-.131-.234-.31-.236-.81v-3.306c.189,0,.442.022.7.022a3.23,3.23,0,0,0,.345-.012.6.6,0,0,0,.537-.61.835.835,0,0,0-.068-.322l-.017-.041h-1.537v-.959a1.7,1.7,0,0,1,.166-.854.718.718,0,0,1,.683-.333.92.92,0,0,1,.577.17.84.84,0,0,0-.132.44.8.8,0,0,0,.787.775.815.815,0,0,0,.807-.842c-.006-.867-.977-1.406-2.138-1.407a2.083,2.083,0,0,0-1.877.913,3.032,3.032,0,0,0-.393,1.738v.369h-.391a.537.537,0,0,0-.565.541.822.822,0,0,0,.068.314l.017.039.894.032v3.331c0,.5-.063.682-.216.812a1.021,1.021,0,0,1-.417.184l-.033.006-.015.03a.654.654,0,0,0-.069.272c0,.217.169.361.433.434m-10.726,0a4.5,4.5,0,0,0,1.153.106,4.239,4.239,0,0,0,1.11-.1c.248-.069.4-.21.4-.416a.7.7,0,0,0-.076-.294l-.014-.031-.033-.006a1.489,1.489,0,0,1-.55-.187c-.15-.128-.223-.308-.225-.81v-1.529c0-1.249.416-1.61.706-1.7a.774.774,0,0,0,.776.616.852.852,0,0,0,.819-.886.932.932,0,0,0-.983-.928,1.74,1.74,0,0,0-1.384.9.934.934,0,0,0-.905-.821,1.414,1.414,0,0,0-.412.068c-.375.117-.93.375-.939.88a.738.738,0,0,0,.057.277l.021.05.053-.01a1.554,1.554,0,0,1,.283-.031c.354.01.454.16.466.586v2.535c0,.5-.064.682-.216.812a1.021,1.021,0,0,1-.416.184l-.034.006-.014.031a.676.676,0,0,0-.071.274c0,.216.168.36.429.432m-5.068,0c-.262-.071-.429-.216-.429-.432a.665.665,0,0,1,.071-.274l.014-.031.034-.006a1.027,1.027,0,0,0,.416-.184c.153-.13.215-.309.217-.812v-2.535c-.013-.427-.113-.576-.468-.586a1.544,1.544,0,0,0-.282.031l-.055.01-.02-.05a.73.73,0,0,1-.057-.277c.009-.505.564-.763.94-.88a1.413,1.413,0,0,1,.411-.068.934.934,0,0,1,.906.818,1.746,1.746,0,0,1,1.385-.894.933.933,0,0,1,.983.928.852.852,0,0,1-.82.886.775.775,0,0,1-.775-.616c-.29.095-.7.456-.706,1.7v1.529c0,.5.074.681.224.81a1.492,1.492,0,0,0,.55.187l.034.006.014.031a.72.72,0,0,1,.077.294c0,.205-.153.347-.4.416a4.238,4.238,0,0,1-1.11.1,4.489,4.489,0,0,1-1.152-.106m21.136-3.17c0,1.665.727,2.382,1.438,2.383.813,0,1.4-.718,1.4-2.12a3.1,3.1,0,0,0-.426-1.715,1.235,1.235,0,0,0-1.043-.608c-.843,0-1.368.763-1.373,2.059M87.3,238.4c-.668.007-1.118.321-1.121.943a.951.951,0,0,0,1.023.986,1.444,1.444,0,0,0,1.077-.546v-.859a.437.437,0,0,0-.241-.348,1.411,1.411,0,0,0-.738-.175m17.322-1.007c.121,0,.153-.03.176-.068a.511.511,0,0,0,.029-.222,1.129,1.129,0,0,0-1.154-1.112c-.872,0-1.225.7-1.28,1.4Zm-26.86,2.923a3.857,3.857,0,0,0,2.769,1.166c1.863,0,3.179-1.3,3.185-2.434a.937.937,0,0,0-1.567-.815.943.943,0,0,0-.283.7,1.023,1.023,0,0,0,.315.716,1.62,1.62,0,0,1-1.488.776,1.926,1.926,0,0,1-1.6-.923,4.318,4.318,0,0,1-.644-2.431,4.448,4.448,0,0,1,.623-2.438,1.876,1.876,0,0,1,1.582-.926,1.633,1.633,0,0,1,1.49.777,1.034,1.034,0,0,0-.315.72.936.936,0,0,0,.284.7.966.966,0,0,0,.668.252.977.977,0,0,0,.9-1.07c-.006-1.127-1.322-2.43-3.186-2.433a3.757,3.757,0,0,0-2.749,1.23,4.646,4.646,0,0,0-1.188,3.2,4.527,4.527,0,0,0,1.211,3.23m0,0a3.857,3.857,0,0,0,2.769,1.166c1.863,0,3.179-1.3,3.185-2.434a.937.937,0,0,0-1.567-.815.943.943,0,0,0-.283.7,1.023,1.023,0,0,0,.315.716,1.62,1.62,0,0,1-1.488.776,1.926,1.926,0,0,1-1.6-.923,4.318,4.318,0,0,1-.644-2.431,4.448,4.448,0,0,1,.623-2.438,1.876,1.876,0,0,1,1.582-.926,1.633,1.633,0,0,1,1.49.777,1.034,1.034,0,0,0-.315.72.936.936,0,0,0,.284.7.966.966,0,0,0,.668.252.977.977,0,0,0,.9-1.07c-.006-1.127-1.322-2.43-3.186-2.433a3.757,3.757,0,0,0-2.749,1.23,4.646,4.646,0,0,0-1.188,3.2,4.527,4.527,0,0,0,1.211,3.23" transform="translate(0 -7.897)" fill="#175fa6"/>
    </g>
  </g>
</svg>
