<svg xmlns="http://www.w3.org/2000/svg" width="1175.698" height="532.644" viewBox="0 0 1175.698 532.644">
  <path id="Path_3814" data-name="Path 3814" d="M-9090.844,5314.4c217.033,87.252,356.191,29.834,264.015,202.307-41.388,77.44-38.567,88.462-69.037,105.667-37.106,20.952-114.131,39.2-259.632,53.857-62.057,6.251-355.034,23.252-414.949,23.632-3.239.024-6.509.02-9.935-.011-65.237-.6-140.835-11.624-194.94-23.621-79.669-17.666-117.889-69.126-147.245-159.523-31.607-97.325-56.1-139.708-50.173-166.942,6.341-29.157,48.086-40.658,154.441-84.247,137.3-56.27,221-113.68,354.554-94.518C-9398.124,5180.414-9162.464,5285.605-9090.844,5314.4Z" transform="translate(9973.628 -5167.233)" fill="#004996" opacity="0.053"/>
</svg>
