<svg id="mail-send-line" xmlns="http://www.w3.org/2000/svg" width="14.888" height="14.888" viewBox="0 0 14.888 14.888">
  <path id="Path_3735" data-name="Path 3735" d="M0,0H14.888V14.888H0Z" fill="none"/>
  <path id="Path_3736" data-name="Path 3736" d="M13.647,13.55a.62.62,0,0,1-.615.616H1.856a.616.616,0,0,1-.615-.616v-.625H12.406V5.667L7.444,10.134l-6.2-5.583V3.62A.62.62,0,0,1,1.861,3H13.027a.62.62,0,0,1,.62.62ZM2.751,4.241,7.444,8.465l4.693-4.224ZM0,10.444H4.963v1.241H0Zm0-3.1H3.1V8.583H0Z" transform="translate(0 -1.139)" fill="#fff"/>
</svg>
