<svg id="phone-line" xmlns="http://www.w3.org/2000/svg" width="16.011" height="16.011" viewBox="0 0 16.011 16.011">
  <path id="Path_3733" data-name="Path 3733" d="M0,0H16.011V16.011H0Z" fill="none"/>
  <path id="Path_3734" data-name="Path 3734" d="M7.247,8.125a7.042,7.042,0,0,0,2.637,2.637l.59-.826a.667.667,0,0,1,.863-.2,7.62,7.62,0,0,0,3.057.91.667.667,0,0,1,.614.665V14.29a.667.667,0,0,1-.6.664A10.347,10.347,0,0,1,3.055,3.6.667.667,0,0,1,3.719,3H6.7a.667.667,0,0,1,.665.615,7.62,7.62,0,0,0,.91,3.057.667.667,0,0,1-.2.863l-.826.59ZM5.564,7.687l1.268-.905A8.946,8.946,0,0,1,6.1,4.334H4.341c0,.111-.006.222-.006.334a9.005,9.005,0,0,0,9.006,9.006c.111,0,.223,0,.334-.007V11.908a8.946,8.946,0,0,1-2.447-.732l-.905,1.268a8.3,8.3,0,0,1-1.059-.5l-.039-.022A8.377,8.377,0,0,1,6.087,8.785l-.022-.039a8.3,8.3,0,0,1-.5-1.059Z" transform="translate(-0.999 -0.999)" fill="#fff"/>
</svg>
