<svg id="printer-line" xmlns="http://www.w3.org/2000/svg" width="15.402" height="15.402" viewBox="0 0 15.402 15.402">
  <path id="Path_3828" data-name="Path 3828" d="M0,0H15.4V15.4H0Z" fill="none"/>
  <path id="Path_3829" data-name="Path 3829" d="M4.567,12.91H2.642A.642.642,0,0,1,2,12.268V5.851a.642.642,0,0,1,.642-.642H4.567V2.642A.642.642,0,0,1,5.209,2h6.418a.642.642,0,0,1,.642.642V5.209h1.925a.642.642,0,0,1,.642.642v6.418a.642.642,0,0,1-.642.642H12.268v1.284a.642.642,0,0,1-.642.642H5.209a.642.642,0,0,1-.642-.642Zm0-1.284v-.642a.642.642,0,0,1,.642-.642h6.418a.642.642,0,0,1,.642.642v.642h1.284V6.492H3.284v5.134ZM5.851,3.284V5.209h5.134V3.284Zm0,8.343v1.925h5.134V11.626ZM3.925,7.134H5.851V8.418H3.925Z" transform="translate(-0.716 -0.716)" fill="#fff"/>
</svg>
